<svg id="Layer_1" data-name="Layer 1" xmlns="http://www.w3.org/2000/svg" viewBox="0 0 250 250"><defs><style>.cls-1{fill:none;stroke:#4a4a4a;stroke-linecap:round;stroke-linejoin:round;stroke-width:7px;}.cls-2{fill:#4a4a4a;}</style></defs><title>ico</title><path class="cls-1" d="M57.71,50.68,52.82,50a3.69,3.69,0,0,0-.57,0,4,4,0,0,0-2.46.82,4.08,4.08,0,0,0-1.55,2.71L30.16,196.15a7,7,0,0,1-7,6.16,5.56,5.56,0,0,1-.9-.05,7,7,0,0,1-6.07-7.9L34.3,51.68a18.34,18.34,0,0,1,7-12.17,18.07,18.07,0,0,1,11-3.71,18.58,18.58,0,0,1,2.56.18l3.93.63"/><path class="cls-1" d="M88.42,40.93A19.85,19.85,0,0,1,104,59.47l.76,17,0,.22.52,11.63.64,14.3.68,15.17.64,14.28,1,23,3,67.36a7.08,7.08,0,0,1-6.7,7.39h-.32a7,7,0,0,1-7-6.74l-3.24-71.89-2.16-48.42-.17-3.55L91.1,84.91,90.4,69.2,90,60.11c-.1-2.13-1.91-4-3.73-4.89"/><path class="cls-1" d="M135.89,154l-.35,7.92a7,7,0,0,0,6.69,7.39h.32a7,7,0,0,0,7-6.74l.66-14.38"/><path class="cls-1" d="M193.53,26l1.28.15a19.48,19.48,0,0,1,17,16.43l22,144.5a7.07,7.07,0,0,1-5.89,8,6.44,6.44,0,0,1-1.07.09,7,7,0,0,1-6.93-6l-11.79-77.58-2.13-14-8-52.93a5.4,5.4,0,0,0-4.69-4.53l-2.47-.69"/><path class="cls-1" d="M140.31,59.09l1-20.55a17.29,17.29,0,0,1,6-12.32,17.07,17.07,0,0,1,11.11-4.11,15.5,15.5,0,0,1,1.93.11l3.27.59"/><path class="cls-1" d="M154.29,61l.06-1.24,1-20.55A3.12,3.12,0,0,1,156.38,37a3.16,3.16,0,0,1,2-.75c.12,0,.24,0,.35,0l4.1.47"/><polyline class="cls-1" points="208.07 111.69 158.01 121.81 151.41 123.15 147.29 123.98 137.21 126.02 107.27 132.07"/><polyline class="cls-1" points="106.63 117.8 137.87 111.48 145.73 109.89"/><line class="cls-1" x1="205.94" y1="97.69" x2="187.05" y2="101.52"/><polyline class="cls-1" points="40.58 113.94 79.87 105.38 91.91 102.75"/><line class="cls-1" x1="68.04" y1="93.49" x2="42.46" y2="99.07"/><path class="cls-1" d="M157.82,137c0,4.22-2.81,8.12-7.59,11.26a44.88,44.88,0,0,1-14.34,5.8,73.54,73.54,0,0,1-16.51,1.83,77.22,77.22,0,0,1-11.08-.8"/><path class="cls-1" d="M80.92,137c0,5.67,5.09,10.76,13.15,14.21"/><line class="cls-1" x1="87.35" y1="83.99" x2="87.34" y2="83.99"/><line class="cls-1" x1="125.48" y1="107.34" x2="105.95" y2="102.63"/><polyline class="cls-1" points="91.75 99.2 79.56 96.27 68.04 93.49 56.55 90.72"/><path class="cls-1" d="M125.48,107.34a99,99,0,0,0,20.25,2.55c1,0,2.05,0,3.1,0,16.08,0,30.19-3.36,38.22-8.41,4.44-2.8,7-6.11,7-9.67"/><line class="cls-1" x1="137.33" y1="58.94" x2="104.32" y2="66.15"/><line class="cls-1" x1="90.4" y1="69.2" x2="56.55" y2="76.58"/><line class="cls-1" x1="125.48" y1="93.19" x2="105.31" y2="88.33"/><polyline class="cls-1" points="91.1 84.9 87.35 83.99 87.34 83.99 56.55 76.58"/><line class="cls-1" x1="56.54" y1="76.58" x2="56.54" y2="90.72"/><path class="cls-1" d="M137.32,59,176.2,65.2a31.65,31.65,0,0,1,4.73,1.14c12.57,4.06,13.14,10.11,13.14,12.55,0,10-20.26,16.9-45.24,16.9a101.7,101.7,0,0,1-23.35-2.59"/><path class="cls-1" d="M154.35,59.75h-.14"/><line class="cls-1" x1="194.07" y1="77.7" x2="194.07" y2="91.84"/><path class="cls-2" d="M104.78,76.7c5,1.33,48.4,12.42,68.78,4,6.42-2.65-1-6.81-9.81-8-2.12-.28-23.44-3.57-23.44-3.57l-35.54,7.28"/><line class="cls-1" x1="80.92" y1="136.96" x2="79.87" y2="105.37"/><line class="cls-1" x1="158.01" y1="121.8" x2="157.82" y2="136.96"/><path class="cls-1" d="M170,20.23a7.67,7.67,0,0,0-5,1.23,4.54,4.54,0,0,0-2.15,3.69v10.7c0,1.91,1.85,3.52,4.3,3.75l18,1.73a7.43,7.43,0,0,0,4.51-1A4.64,4.64,0,0,0,192,37.21l1.49-9.49a4.58,4.58,0,0,0-1.45-4,7.61,7.61,0,0,0-4.68-2Z"/><path class="cls-1" d="M65.06,34.19a7.25,7.25,0,0,0-5.12,1.27,5.21,5.21,0,0,0-2.22,4.15V51.36a4.44,4.44,0,0,0,4.12,4.12l18,2.51a6.93,6.93,0,0,0,4.65-1,5.17,5.17,0,0,0,2.4-3.54L88.39,43c.46-3.2-2.16-6.13-5.89-6.6Z"/></svg>