<svg id="Layer_1" data-name="Layer 1" xmlns="http://www.w3.org/2000/svg" viewBox="0 0 250 250"><defs><style>.cls-1{fill:#1d1d1d;}</style></defs><title>ico</title><path class="cls-1" d="M173.56,190.6l.56-16.36a21.46,21.46,0,0,1,.91-5.51h-4.51a26.13,26.13,0,0,0-.75,5.36l-.51,14.84c-3.94,4.47-9.29,13.06-9.53,13.46l3.81,2.37c.05-.08,3.63-5.86,6.93-10.21h0C171.33,193.38,172.37,192,173.56,190.6Z"/><path class="cls-1" d="M235.47,111.79l-4.55-30.15-1.57-.25c-3.61-.6-10.82.26-12.22,7.8-1.35,7.35-.84,27.83-.79,29.8l-2,23.45,0,.33-.39.4h0l-13.65,13.62,4.79-20.29a9.55,9.55,0,0,0-10.81-12.94v4.55A5.18,5.18,0,0,1,201,135l-6.6,27.93-10.29,15.16,3.61,2.44,10.4-15.4,20.41-20.36,2.17-25.62V119c0-.22-.6-21.89.72-29,.67-3.66,3.76-4.33,5.69-4.38l4.08,27,5.23,25.11-11.88,36.86c-4.37,5.55-12.86,11.91-12.91,11.94a61.77,61.77,0,0,0-8.86,8.11,202.13,202.13,0,0,0-15.62,19.49l3.57,2.49c.13-.19,13.81-19.71,23.47-26.56.38-.29,9.36-7,14-13.12l.22-.3,12.46-38.66Z"/><path class="cls-1" d="M75,168.73a21.46,21.46,0,0,1,.91,5.51l.57,16.36c1.18,1.43,2.22,2.78,3.07,4h0c3.3,4.35,6.88,10.13,6.93,10.21l3.81-2.37c-.24-.4-5.59-9-9.52-13.46l-.52-14.84a26.13,26.13,0,0,0-.75-5.36Zm3,20.56Z"/><path class="cls-1" d="M38.41,186.5c-.09-.06-8.57-6.41-12.95-12L13.58,137.67l5.25-25.23,4.06-26.86c1.93,0,5,.7,5.69,4.4,1.32,7.11.73,28.79.72,29v.12l2.17,25.62,20.41,20.36,10.41,15.4,3.6-2.44-10.3-15.24-6.47-27.49L49,135a5.2,5.2,0,0,1,9.22-4.77L61,136.51v-9.9a9.56,9.56,0,0,0-16,9.88l4.77,20.27-13.63-13.6h0l-.39-.4,0-.32-2-23.46c0-.87.13-5.27.14-10.57,0-6.81-.17-15.1-.93-19.23-1.4-7.54-8.6-8.4-12.22-7.8l-1.57.25-4.53,30L9.09,137.92l12.46,38.66.22.3C26.45,183,35.43,189.71,35.85,190c9.62,6.81,23.3,26.34,23.43,26.53l3.58-2.49a204.29,204.29,0,0,0-15.62-19.49A61.85,61.85,0,0,0,38.41,186.5Z"/><path class="cls-1" d="M188.64,102.59,181.73,99,127.62,70.48,73.51,99l-6.91,3.64v55a7.47,7.47,0,0,0,7.47,7.47h35.34v-44.5a3.41,3.41,0,0,1,3.41-3.41h29.6a3.41,3.41,0,0,1,3.41,3.41v44.5h35.34a7.47,7.47,0,0,0,7.47-7.47v-55Z"/><polygon class="cls-1" points="127.62 60.96 206.49 102.46 214.12 87.97 127.62 42.45 41.12 87.97 48.75 102.46 127.62 60.96"/><path class="cls-1" d="M96.71,35.72a2.28,2.28,0,0,0-2.29-2.28H68.89a2.29,2.29,0,0,0-2.29,2.28V66.54L96.71,50.68Z"/></svg>