<svg id="Layer_1" data-name="Layer 1" xmlns="http://www.w3.org/2000/svg" viewBox="0 0 250 250"><defs><style>.cls-1{fill:#4a4a4a;}.cls-2{fill:none;stroke:#4a4a4a;stroke-linecap:round;stroke-linejoin:round;stroke-width:7px;}</style></defs><title>ico</title><circle class="cls-1" cx="97.44" cy="73.81" r="3.94"/><circle class="cls-1" cx="77.75" cy="77.75" r="3.94"/><circle class="cls-1" cx="105.32" cy="89.56" r="3.94"/><circle class="cls-1" cx="85.63" cy="97.44" r="3.94"/><circle class="cls-1" cx="89.57" cy="121.06" r="3.94"/><circle class="cls-1" cx="105.32" cy="109.25" r="3.94"/><circle class="cls-1" cx="109.25" cy="128.94" r="3.94"/><circle class="cls-1" cx="97.44" cy="144.69" r="3.94"/><circle class="cls-1" cx="121.07" cy="148.63" r="3.94"/><circle class="cls-1" cx="109.25" cy="164.38" r="3.94"/><circle class="cls-1" cx="132.88" cy="164.38" r="3.94"/><circle class="cls-1" cx="128.94" cy="188" r="3.94"/><circle class="cls-1" cx="148.63" cy="180.13" r="3.94"/><path class="cls-2" d="M150.64,32.37a28.19,28.19,0,0,1,10.14-1.88,27.64,27.64,0,0,1,27.6,24.21h0a29.17,29.17,0,0,1,.17,3.11c0,.23,0,.46,0,.68,0,2.12,0,6.15,0,6.16-.27,23,8,44.67,23.56,60.64a44.77,44.77,0,0,0,8.61,6.89,22,22,0,0,1-3,39.16"/><path class="cls-2" d="M150.64,32.37,91.73,55.08a.88.88,0,0,0-.55,1,.89.89,0,0,0,.88.71h.14a28.16,28.16,0,0,1,28.13,24.67h0a27.85,27.85,0,0,1,.18,3.18c0,.24,0,.47,0,.69,0,2.16,0,6.27,0,6.27-.26,23.43,8.14,45.52,24,61.8a46.06,46.06,0,0,0,8.77,7,22.49,22.49,0,0,1,10.77,19.15,22.25,22.25,0,0,1-3.66,12.25,1.94,1.94,0,0,0,.15,2.32,2,2,0,0,0,2.32.54l54.82-23.32"/><path class="cls-2" d="M22.33,117.58A26.91,26.91,0,0,1,18.68,104,27.39,27.39,0,0,1,36.34,78.54,28.29,28.29,0,0,1,46.5,76.67,27.66,27.66,0,0,1,74.13,100.9h0a29.21,29.21,0,0,1,.18,3.12c0,.23,0,.45,0,.68-.06,2.12,0,6.16,0,6.17-.23,20.26,7.89,43.45,22.88,59.84a45.22,45.22,0,0,0,9.43,7.83,22,22,0,0,1-3.13,39.14A22.79,22.79,0,0,1,75,208.29h0L22.33,117.58"/><line class="cls-2" x1="160.12" y1="192.62" x2="103.51" y2="217.69"/><line class="cls-2" x1="92.77" y1="56.79" x2="36.35" y2="78.55"/><path class="cls-1" d="M132.87,85.62a3.89,3.89,0,0,1-3.93-3.94,4,4,0,0,1,1.14-2.79,4.11,4.11,0,0,1,5.59,0,4,4,0,0,1,1.14,2.79,3.89,3.89,0,0,1-3.94,3.94Z"/><path class="cls-1" d="M143.75,76.76a4,4,0,0,1,1.92-5.24h0a4,4,0,0,1,5.24,2h0a3.92,3.92,0,0,1-2,5.2h0a3.79,3.79,0,0,1-1.62.36h0A3.91,3.91,0,0,1,143.75,76.76Zm14.4-6.57a3.93,3.93,0,0,1,2-5.2h0a3.9,3.9,0,0,1,5.2,1.93h0a4,4,0,0,1-1.93,5.24h0a4.26,4.26,0,0,1-1.65.35h0A4,4,0,0,1,158.15,70.19Z"/><path class="cls-1" d="M176.19,65.93a4.11,4.11,0,0,1-2.79-1.14,4,4,0,0,1,0-5.59,3.94,3.94,0,0,1,6.73,2.8A3.92,3.92,0,0,1,179,64.79,4,4,0,0,1,176.19,65.93Z"/><path class="cls-1" d="M176.19,168.32a4,4,0,0,1-2.79-1.15,4,4,0,0,1,0-5.59,4.11,4.11,0,0,1,5.59,0,4.06,4.06,0,0,1,1.14,2.8,4,4,0,0,1-1.18,2.79A3.92,3.92,0,0,1,176.19,168.32Z"/><path class="cls-1" d="M187.06,159.46a4,4,0,0,1,1.93-5.24h0a4,4,0,0,1,5.24,2h0a3.94,3.94,0,0,1-2,5.2h0a4,4,0,0,1-1.62.35h0A4,4,0,0,1,187.06,159.46Zm14.41-6.58a4,4,0,0,1,2-5.24h0a4,4,0,0,1,5.2,2h0a4,4,0,0,1-1.93,5.24h0a4.29,4.29,0,0,1-1.65.35h0A4,4,0,0,1,201.47,152.88Z"/><path class="cls-1" d="M219.5,148.63a4.14,4.14,0,0,1-2.79-1.15,4,4,0,0,1,0-5.59,4,4,0,1,1,2.79,6.74Z"/></svg>