<svg id="Layer_1" data-name="Layer 1" xmlns="http://www.w3.org/2000/svg" viewBox="0 0 250 250"><defs><style>.cls-1{fill:none;stroke:#4a4a4a;stroke-linecap:round;stroke-linejoin:round;stroke-width:7px;}</style></defs><title>ico</title><path class="cls-1" d="M113.92,187.35a11.75,11.75,0,0,1-5.31,14.78"/><path class="cls-1" d="M201.43,165.86a10.79,10.79,0,0,1,3.26,7.06,10.7,10.7,0,0,1-2.89,8"/><line class="cls-1" x1="201.8" y1="180.93" x2="186.29" y2="197.56"/><line class="cls-1" x1="201.43" y1="165.85" x2="186.95" y2="151.74"/><line class="cls-1" x1="113.91" y1="187.35" x2="109.05" y2="175.59"/><path class="cls-1" d="M90.66,211.92A12.05,12.05,0,0,0,87,215.05"/><path class="cls-1" d="M188.67,195h0a11,11,0,0,0-2.3,2.43s-.05.09-.08.11"/><line class="cls-1" x1="90.66" y1="211.91" x2="108.61" y2="202.13"/><path class="cls-1" d="M57,214.68A11.41,11.41,0,0,0,55,218v0"/><path class="cls-1" d="M66.93,234a12,12,0,0,0,8.79-4.59"/><line class="cls-1" x1="152.21" y1="211.11" x2="152.2" y2="211.1"/><path class="cls-1" d="M163.83,223.2h.06l.59-.06a11,11,0,0,0,7.82-4.7.76.76,0,0,1,.08-.11"/><path class="cls-1" d="M156.48,203.71l-.09.07"/><line class="cls-1" x1="172.37" y1="218.33" x2="186.29" y2="197.56"/><line class="cls-1" x1="75.71" y1="229.43" x2="86.95" y2="215.06"/><path class="cls-1" d="M52.47,220.28A12.28,12.28,0,0,0,55,218a11.91,11.91,0,0,0,2-3.34c0-.14.11-.27.15-.42l.12-.35"/><line class="cls-1" x1="57.18" y1="214.26" x2="78.26" y2="153.47"/><path class="cls-1" d="M78.26,153.47c.09-.23.16-.47.23-.71a13.21,13.21,0,0,0,.31-1.52v0"/><path class="cls-1" d="M150.08,212.38a11.86,11.86,0,0,0,2-1.19l.13-.08h0a10.84,10.84,0,0,0,4-6.36v-.08a8.49,8.49,0,0,0,.14-.88"/><path class="cls-1" d="M118.28,25.26l-.14.07a23,23,0,0,0-13,14.89c-.13.47-.24,1-.35,1.45l0,.09"/><path class="cls-1" d="M109.05,175.59a8.19,8.19,0,0,1,.37-7"/><path class="cls-1" d="M184.67,146.77a7.55,7.55,0,0,0,.74,2.84,7.89,7.89,0,0,0,1.54,2.13"/><line class="cls-1" x1="130" y1="130.65" x2="109.42" y2="168.56"/><path class="cls-1" d="M43.61,235.36h-.25a4.18,4.18,0,0,1-4.2-4.15A4.13,4.13,0,0,1,41,227.77"/><path class="cls-1" d="M141,224.67h0a3.81,3.81,0,0,1-2.57-6.86,4.88,4.88,0,0,1,.71-.41"/><line class="cls-1" x1="140.96" y1="224.67" x2="163.89" y2="223.19"/><line class="cls-1" x1="139.08" y1="217.4" x2="150.07" y2="212.38"/><line class="cls-1" x1="43.61" y1="235.36" x2="66.93" y2="234.02"/><line class="cls-1" x1="41.04" y1="227.77" x2="52.47" y2="220.28"/><path class="cls-1" d="M162.51,65.52c4,4.69,9.3,11.6,12.53,18.16,5.62,11.44,9.63,63.09,9.63,63.09"/><path class="cls-1" d="M136.83,118.22c9.24,22.86,20.81,47.59,21.35,57.47,1,18.35-1.94,29.05-1.94,29.05"/><line class="cls-1" x1="105.18" y1="40.22" x2="78.26" y2="153.47"/><path class="cls-1" d="M118.14,25.33s20.72-10.49,92.7-10.69"/><path class="cls-1" d="M130,130.68s20.5-33.95,22.46-60.77a5.14,5.14,0,0,1,1.8-3.53,5.33,5.33,0,0,1,3.82-1.22c13.16,1.06,45.94,3.59,52.78,2.61"/><path class="cls-1" d="M51.43,146.62l8.78-12.35c-9,36.4,30.45,56.13,48.44,56.13,11.75,0,18.21-12.82,12.26-18.5"/><line class="cls-1" x1="66.55" y1="146.54" x2="60.21" y2="134.27"/><path class="cls-1" d="M60.33,97.11,68.85,85c-7.13,32.64,24.47,61.75,39.78,65,14.52,3,29,1.52,28.63-11.88"/><line class="cls-1" x1="75.21" y1="97.16" x2="68.85" y2="85.02"/><path class="cls-1" d="M90.65,48.62,87.27,36.23c-15.13,28.25,12.36,63.4,35.62,70.64,14.62,4.55,43.08,3.83,38.9-12.81"/><line class="cls-1" x1="75.73" y1="44.31" x2="87.27" y2="36.23"/><path class="cls-1" d="M164.5,16.52s-8,27.79,4.22,49.47"/><path class="cls-1" d="M184.67,14.63s-7.89,27.13,4,52.68"/></svg>