<svg id="Layer_1" data-name="Layer 1" xmlns="http://www.w3.org/2000/svg" viewBox="0 0 250 250"><defs><style>.cls-1{fill:none;}.cls-1,.cls-2{stroke:#4a4a4a;stroke-linecap:round;stroke-linejoin:round;stroke-width:7px;}.cls-2{fill:#4a4a4a;}</style></defs><title>ico</title><path class="cls-1" d="M35.82,206.78,45,33.82A8.92,8.92,0,0,1,57.4,26.1L83,37.15A17.83,17.83,0,0,1,93.79,53.53V224.62"/><circle class="cls-1" cx="93.79" cy="224.62" r="13.38"/><path class="cls-1" d="M155.4,41.8l1.07-21.32a8.91,8.91,0,0,1,12.44-7.74l25.58,11a17.83,17.83,0,0,1,10.77,16.38V211.24"/><line class="cls-1" x1="153.26" y1="80.46" x2="153.86" y2="68.98"/><line class="cls-1" x1="147.3" y1="193.41" x2="151.97" y2="109.42"/><rect class="cls-2" x="142.84" y="193.41" width="8.92" height="8.92"/><rect class="cls-2" x="31.36" y="206.78" width="8.92" height="8.92"/><circle class="cls-1" cx="205.26" cy="211.24" r="13.38"/><path class="cls-1" d="M93.79,55.18l22.37,7.45a17.77,17.77,0,0,0,8.92.61l61.38-11.5a17.92,17.92,0,0,0,9.33-4.92l9.47-9.48"/><path class="cls-1" d="M93.79,90.85l22.37,7.45a17.66,17.66,0,0,0,8.92.61l61.38-11.5a17.92,17.92,0,0,0,9.33-4.92L205.26,73"/><line class="cls-1" x1="93.79" y1="139.9" x2="40.59" y2="117.73"/><line class="cls-1" x1="205.26" y1="135.44" x2="152.06" y2="117.73"/></svg>