<svg id="Layer_1" data-name="Layer 1" xmlns="http://www.w3.org/2000/svg" viewBox="0 0 250 250"><defs><style>.cls-1{fill:#1d1d1d;}</style></defs><title>bed</title><path class="cls-1" d="M231.44,119.33h0l-127.13.48L20.86,94.32a9,9,0,0,0-5.27,17.27L39.87,119v57.21a15.46,15.46,0,1,0,18.06,0V155.07h139v21.15a15.47,15.47,0,1,0,18.06,0V137.45l16.52-.06a9,9,0,0,0,0-18.06ZM40.65,188.75A8.25,8.25,0,1,1,48.9,197,8.27,8.27,0,0,1,40.65,188.75Zm157,0a8.26,8.26,0,1,1,8.25,8.25A8.27,8.27,0,0,1,197.68,188.75Z"/><path class="cls-1" d="M129.15,86.8l-15.44-2.26c-.34-.13-.69-.26-1-.36L73,72.92A13.55,13.55,0,0,0,65.59,99l39.67,11.25a12.83,12.83,0,0,0,1.88.39,11.38,11.38,0,0,0,3.46.53h5.7C117.86,106.52,122.18,95.09,129.15,86.8Z"/><path class="cls-1" d="M50.86,82.59a21.56,21.56,0,1,0-30.49,0A21.56,21.56,0,0,0,50.86,82.59Z"/><path class="cls-1" d="M220.67,81.72h-82c-13.42,7.32-20.75,32.14-20.75,32.14H240.81v-12A20.14,20.14,0,0,0,220.67,81.72Z"/></svg>