<svg id="Layer_1" data-name="Layer 1" xmlns="http://www.w3.org/2000/svg" viewBox="0 0 250 250"><defs><style>.cls-1{fill:#1d1d1d;}</style></defs><title>ico</title><path class="cls-1" d="M173.46,71.34a16.44,16.44,0,0,0-16.53-16.09H89A16.53,16.53,0,0,0,72.53,73.58l6.3,57.8a80.22,80.22,0,0,1-.75,18.19l0,.31,0,.32-3.92,51.86a15.91,15.91,0,0,0,15.85,17.09h67A15.88,15.88,0,0,0,172.71,205l1.85-16.74a240.1,240.1,0,0,0,1.46-26.4V124a241.92,241.92,0,0,0-2-30.55Zm-5.41,90.52a231.37,231.37,0,0,1-1.41,25.52l-1.85,16.74a7.93,7.93,0,0,1-7.88,7.06H137.27c-.1-12.35-.35-24.24-.94-28.47-1.38-10,21.69-24.46,16.85-35.57s-17.32-5.51-27-2.74-24.93-6.23-26.68,0,0,18,9.36,32.2c3.19,4.82,3.17,19.78,2.21,34.58H89.94a7.92,7.92,0,0,1-7.9-8.52L86,150.8a88.74,88.74,0,0,0,.82-20.14L80.45,72.72A8.58,8.58,0,0,1,89,63.21h21c.08,13.78.14,32.68-.1,37-.39,7-13.82,17.41-11,25.15s4.78,8.51,14.45,3.86,24.37-1.54,32.88-1.16,10.84-5.41,0-18.18c-6.94-8.18-8.95-31.17-9.51-46.66h20.22a8.58,8.58,0,0,1,8.57,8.34l.61,22.5A232.24,232.24,0,0,1,168.05,124Z"/><path class="cls-1" d="M128.48,132l-5.65.42a78.23,78.23,0,0,0-12.09,2.11c-8.23,1.7,6.76,4.22,12.09,5.16s9-1.36,14.51-1.83,11.83.47,9.72-3.33S128.48,132,128.48,132Z"/><polygon class="cls-1" points="60.53 107.36 34.12 51.18 6.25 69.36 45.19 103.89 29.91 115.69 67.5 142.6 52.24 115.39 60.53 107.36"/><polygon class="cls-1" points="243.75 45.03 215.88 26.85 189.47 83.03 197.76 91.06 182.51 118.27 220.09 91.36 204.81 79.56 243.75 45.03"/></svg>