<svg id="Layer_1" data-name="Layer 1" xmlns="http://www.w3.org/2000/svg" viewBox="0 0 250 250"><defs><style>.cls-1{fill:none;stroke:#4a4a4a;stroke-linecap:round;stroke-linejoin:round;stroke-width:7px;}</style></defs><title>ico</title><path class="cls-1" d="M122.72,96.83c0-.36,0-.75-.08-1.14s-.08-.91-.16-1.38a18.2,18.2,0,0,0-.51-2.48.53.53,0,0,0,0-.24"/><path class="cls-1" d="M114.62,142.14a22.88,22.88,0,0,1,1.88-25.92l.13-.15c14.81-18.81,1.4-46.15-23.11-46.15s-38,27.37-23.24,46.15c0,0,0,0,0,0l0,.06,0,0s0,0,0,0,0,0,0,0a22.91,22.91,0,0,1-3.67,32.32,23.51,23.51,0,0,1-33.12-3.93l-.35-.61c-3.73-5.86-14.45-19.86-14.45-43.55,0-40.76,33.42-73.81,74.65-73.81,49.66,0,80.73,44.65,73.88,86.24a68.77,68.77,0,0,1-13.7,31.64L153,145a2.88,2.88,0,0,0,.28-.39,23.46,23.46,0,0,1-33.13,3.93,23.75,23.75,0,0,1-5.55-6.37"/><path class="cls-1" d="M166.75,137.84c.1-.45.18-.89.25-1.33l.24-1.33h0a72.71,72.71,0,0,0,.1-22.32"/><path class="cls-1" d="M161.48,154.14c.32-.73.64-1.46,1-2.21A71.31,71.31,0,0,0,166.5,139"/><path class="cls-1" d="M19.68,112h0a74.07,74.07,0,0,0,0,23.15h0c.07.47.15.94.24,1.4s.13.7.2,1,.16.8.25,1.21.17.81.27,1.21a69.7,69.7,0,0,0,3.73,11.65c.09.25.2.48.31.72a3.34,3.34,0,0,0,.16.38"/><path class="cls-1" d="M114.62,165.29a23,23,0,0,0,5.56,6.41c10.85,8.61,26.13,5.51,32.9-3.63a1,1,0,0,0,.08-.11"/><path class="cls-1" d="M153.18,167.93l.06-.06h0a.5.5,0,0,0,.06-.08"/><path class="cls-1" d="M46.89,176.2a24.26,24.26,0,0,0,2.75.46"/><path class="cls-1" d="M52,176.8h0"/><path class="cls-1" d="M50.79,176.76H51"/><path class="cls-1" d="M65,172.93a23,23,0,0,0,7.28-7.64"/><path class="cls-1" d="M166.5,139c.09-.4.18-.8.25-1.2s.18-.89.25-1.33l.24-1.33"/><path class="cls-1" d="M114.62,142.14a22.78,22.78,0,0,0,0,23.14h0a23,23,0,0,0,5.56,6.41c10.85,8.61,26.13,5.51,32.9-3.63a60.12,60.12,0,0,0,8.4-13.93c.32-.73.64-1.46,1-2.21"/><path class="cls-1" d="M19.68,135.18c.26,1.64.59,3.25,1,4.87"/><path class="cls-1" d="M66.91,171.57a23.32,23.32,0,0,0,1.86-1.68c.16-.18.32-.33.47-.5s.32-.35.47-.53a22.79,22.79,0,0,0,2.59-3.57h0a22.8,22.8,0,0,0,0-23.14"/><path class="cls-1" d="M65.78,172.42a23.54,23.54,0,0,1-31.87-4.25,62.17,62.17,0,0,1-9.07-15.37c-.16-.36-.31-.73-.47-1.1"/><path class="cls-1" d="M120.34,109.9c-4.52-10.24-14.85-16.38-26.88-16.38S71.1,99.66,66.58,109.9"/><path class="cls-1" d="M153.8,190.31a.05.05,0,0,1,0,0,73.1,73.1,0,0,0,14.31-43.5,71.93,71.93,0,0,0-.37-7.38c-.14-1.41-.32-2.82-.53-4.21h0"/><path class="cls-1" d="M114.62,165.29a22.9,22.9,0,0,0,5.56,29.57c10.28,8.14,26.14,5.8,33.62-4.55a.05.05,0,0,1,0,0"/><path class="cls-1" d="M72.3,165.29a22.91,22.91,0,0,1-5.56,29.57c-9.79,7.76-25,6.06-32.82-3.54a3.79,3.79,0,0,1-.31-.39l-.35-.45-.16-.23c-.15-.19-.28-.37-.41-.56l.24.33a2.29,2.29,0,0,1,.17.23l.82,1.07a3.79,3.79,0,0,1-.31-.39l-.35-.45-.16-.23a2.29,2.29,0,0,0-.17-.23l-.24-.33a72.77,72.77,0,0,1-13.92-42.91,73.79,73.79,0,0,1,.91-11.59h0"/><line class="cls-1" x1="22.52" y1="123.62" x2="22.52" y2="123.61"/><line class="cls-1" x1="114.62" y1="165.29" x2="114.62" y2="165.28"/><line class="cls-1" x1="72.3" y1="165.29" x2="72.3" y2="165.28"/><path class="cls-1" d="M74.12,122.86c5.15-4.48,12-5.73,19.4-5.73s14.12,1.25,19.28,5.73"/><path class="cls-1" d="M215.5,89.59c8.46,0,15.73,8.81,15.73,19.67s-2.82,19.67-15.73,19.67-15.74-8.81-15.74-19.67S207,89.59,215.5,89.59Z"/><polyline class="cls-1" points="223.37 128.94 223.37 144.67 207.63 144.67 207.63 128.94"/><path class="cls-1" d="M215.5,144.67v66.89a11.81,11.81,0,0,1-23.61,0V172.21a11.8,11.8,0,0,0-11.81-11.8h-11.8"/></svg>