<svg id="Layer_1" data-name="Layer 1" xmlns="http://www.w3.org/2000/svg" viewBox="0 0 250 250"><defs><style>.cls-1{fill:#1d1d1d;}</style></defs><title>ico</title><path class="cls-1" d="M115.65,121.87l0-.19,3.63-20.41a14.13,14.13,0,0,0,2.47,2.48L118.54,122l4.07,47.7a7.66,7.66,0,1,0,15.32.12L133.83,125l0-.18,3-18.13a25.33,25.33,0,0,0,3-.68l-3.14,19.1,2.46,27A51.86,51.86,0,0,1,156,173.71l28.86-2.15v37.26a11.13,11.13,0,0,0,22.26,0V157.87a11.06,11.06,0,0,0-3.62-8.19,12.51,12.51,0,0,0-10-3.89l-27.17,2-8.82-60a22,22,0,0,0-24.73-18.92l-6.4.85A20.23,20.23,0,0,0,109,92.42l7.34,50.05,1.13.2Z"/><path class="cls-1" d="M129.55,62.63A25.52,25.52,0,1,0,100.89,40.7,25.52,25.52,0,0,0,129.55,62.63Z"/><path class="cls-1" d="M87.14,78.78H45.2a8.14,8.14,0,1,0,0,16.27H74.54l13.22,51.12a51,51,0,0,1,15.75-4.08Z"/><path class="cls-1" d="M153.19,193.38a44.66,44.66,0,0,0-13.12-31.65l.73,8a10.66,10.66,0,0,1-3.32,7.77A33.15,33.15,0,1,1,119.08,162L118,149.62a44.82,44.82,0,1,0,35.17,43.76Z"/><path class="cls-1" d="M208.05,226h-54.2a4.88,4.88,0,0,0,0,9.76h54.2a4.88,4.88,0,1,0,0-9.76Z"/></svg>