<svg id="Layer_1" data-name="Layer 1" xmlns="http://www.w3.org/2000/svg" viewBox="0 0 250 250"><defs><style>.cls-1{fill:none;stroke:#4a4a4a;stroke-linecap:round;stroke-linejoin:round;stroke-width:7px;}</style></defs><title>ico</title><circle class="cls-1" cx="74.12" cy="176.88" r="11.97"/><circle class="cls-1" cx="177.88" cy="208.8" r="11.97"/><circle class="cls-1" cx="177.88" cy="208.8" r="23.94"/><circle class="cls-1" cx="74.12" cy="176.88" r="39.91"/><circle class="cls-1" cx="74.12" cy="176.88" r="55.87"/><line class="cls-1" x1="74.12" y1="164.91" x2="74.12" y2="136.97"/><line class="cls-1" x1="74.12" y1="216.78" x2="74.12" y2="188.85"/><line class="cls-1" x1="65.66" y1="168.42" x2="45.91" y2="148.66"/><line class="cls-1" x1="102.33" y1="205.09" x2="82.58" y2="185.34"/><line class="cls-1" x1="62.15" y1="176.88" x2="34.22" y2="176.88"/><line class="cls-1" x1="114.03" y1="176.88" x2="86.1" y2="176.88"/><line class="cls-1" x1="65.66" y1="185.34" x2="45.91" y2="205.09"/><line class="cls-1" x1="102.33" y1="148.66" x2="82.58" y2="168.42"/><path class="cls-1" d="M122,145H189.2a12,12,0,0,1,11.36,8.19l9.24,27.73h23.95"/><line class="cls-1" x1="129.99" y1="168.9" x2="177.88" y2="168.9"/><path class="cls-1" d="M157.93,85.09h8a12,12,0,0,1,12,12V208.8"/><polyline class="cls-1" points="86.1 121.01 86.1 85.09 106.05 85.09"/><path class="cls-1" d="M157.92,89.09a12,12,0,0,0-12-12H118a12,12,0,0,0-12,12,4,4,0,0,0,4,4h43.89A4,4,0,0,0,157.92,89.09Z"/><path class="cls-1" d="M86.1,85.09V45.19a8,8,0,0,0-16,0V121H177.88"/><path class="cls-1" d="M54.17,25.24a8,8,0,0,1-8,8H26.24a8,8,0,1,1,0-16h20A8,8,0,0,1,54.17,25.24Z"/><path class="cls-1" d="M78.11,37.21v-4a8,8,0,0,0-8-8h-16"/></svg>